<!--
 * Copyright (c) 2023, WSO2 LLC (http://www.wso2.com). All Rights Reserved.
 *
 * This software is the property of WSO2 LLC and its suppliers, if any.
 * Dissemination of any information or reproduction of any material contained
 * herein in any form is strictly forbidden, unless permitted by WSO2 expressly.
 * You may not alter or remove any copyright or other notice from copies of this content."
-->

<svg xmlns="http://www.w3.org/2000/svg" width="17.06" height="20.235" viewBox="0 0 17.06 20.235">
  <path id="idp-provider-outline" d="M8.288,20.183A25.6,25.6,0,0,1,4.213,17.8a14.084,14.084,0,0,1-2.846-2.636A5.637,5.637,0,0,1,0,11.708V2.973a.593.593,0,0,1,.424-.567L8.36.025a.607.607,0,0,1,.341,0l7.937,2.382a.593.593,0,0,1,.422.567v8.735a5.637,5.637,0,0,1-1.366,3.454A14.129,14.129,0,0,1,12.847,17.8a25.6,25.6,0,0,1-4.073,2.383.593.593,0,0,1-.486,0ZM4.725,17.148a24.572,24.572,0,0,0,3.8,2.162,24.56,24.56,0,0,0,3.812-2.168c.145-.1.282-.208.426-.322a4.367,4.367,0,1,0-8.565-1.2A4.273,4.273,0,0,0,4.393,16.9q.171.129.332.246ZM.867,3.093v8.615A6.746,6.746,0,0,0,3.35,16c-.009-.126-.014-.253-.014-.38a5.235,5.235,0,0,1,3.677-4.991,3.589,3.589,0,1,1,3.113,0A5.237,5.237,0,0,1,13.8,15.623c0,.1,0,.2-.009.3a6.649,6.649,0,0,0,2.392-4.219V3.093L8.528.9ZM5.854,7.408a2.725,2.725,0,1,0,2.72-2.726A2.725,2.725,0,0,0,5.854,7.408Z" transform="translate(0 0)" fill="#cf3b89"/>
</svg>
