<!--
 * Copyright (c) 2021, WSO2 Inc. (http://www.wso2.com). All Rights Reserved.
 *
 * This software is the property of WSO2 Inc. and its suppliers, if any.
 * Dissemination of any information or reproduction of any material contained
 * herein in any form is strictly forbidden, unless permitted by WSO2 expressly.
 * You may not alter or remove any copyright or other notice from copies of this content."
-->

<svg xmlns="http://www.w3.org/2000/svg" width="14.809" height="22.293" viewBox="0 0 14.809 22.293">
  <path id="user-role-outline" d="M1.592,22.193A1.592,1.592,0,0,1,0,20.6V4.677A1.592,1.592,0,0,1,1.592,3.085H5.78V-.1H8.965V3.085h4.252a1.592,1.592,0,0,1,1.592,1.592V20.6a1.592,1.592,0,0,1-1.592,1.592ZM.955,4.677V20.6a.637.637,0,0,0,.637.637H13.217a.637.637,0,0,0,.637-.637V4.677a.637.637,0,0,0-.637-.637H8.963V5.951H5.779V4.04H1.592A.637.637,0,0,0,.955,4.677ZM6.591,1.445a.8.8,0,1,0,.8-.8.8.8,0,0,0-.8.8ZM2.763,19.168H1.807a5.573,5.573,0,0,1,4.266-5.1,3.24,3.24,0,1,1,2.61,0,5.573,5.573,0,0,1,4.253,5.1h-.955a4.618,4.618,0,0,0-9.215,0h0ZM5.1,11.1A2.285,2.285,0,1,0,7.381,8.817,2.285,2.285,0,0,0,5.1,11.1Z" transform="translate(0 0.1)" fill="#92278f"/>
</svg>
