<!--
 * Copyright (c) 2023, WSO2 LLC (http://www.wso2.com). All Rights Reserved.
 *
 * This software is the property of WSO2 LLC and its suppliers, if any.
 * Dissemination of any information or reproduction of any material contained
 * herein in any form is strictly forbidden, unless permitted by WSO2 expressly.
 * You may not alter or remove any copyright or other notice from copies of this content."
-->

<svg xmlns="http://www.w3.org/2000/svg" class="icon" width="14" height="14" viewBox="0 0 11.88 14">
    <path id="plug-icon" class="path fill primary"
          d="M2.955,15.479A2.143,2.143,0,0,1,2.273,13.5a2.265,2.265,0,0,1,.763-1.236A2.944,2.944,0,0,1,3.219,8.3l.993-.995-.145-.144A.307.307,0,0,1,4.5,6.726l.561.561L6.4,5.95a.307.307,0,0,1,.434.434L5.5,7.721,7.954,10.18,9.292,8.842a.307.307,0,1,1,.433.434L8.387,10.614l.562.561a.307.307,0,0,1-.435.434l-.145-.145-.993.993a2.944,2.944,0,0,1-3.882.244,1.546,1.546,0,0,0-.633.995,1.779,1.779,0,0,0,.666,1.49l-.427.427S3.041,15.564,2.955,15.479Zm.7-6.746a2.327,2.327,0,0,0,3.29,3.29l.993-.993L4.645,7.739Zm7.573.163L6.778,4.449a.307.307,0,1,1,.433-.434l.145.145.995-.995a2.946,2.946,0,0,1,3.949-.19l1.364-1.364.434.434L12.73,3.414a2.945,2.945,0,0,1-.221,3.91l-.995.995.145.145a.307.307,0,0,1,0,.433.3.3,0,0,1-.216.091A.307.307,0,0,1,11.225,8.9ZM8.784,3.6l-.993.995,3.289,3.289.995-.993A2.327,2.327,0,0,0,8.784,3.6Z"
          transform="translate(-2.217 -1.612)" fill="#464646"/>
</svg>
