<!--
 * Copyright (c) 2023, WSO2 LLC (http://www.wso2.com). All Rights Reserved.
 *
 * This software is the property of WSO2 LLC and its suppliers, if any.
 * Dissemination of any information or reproduction of any material contained
 * herein in any form is strictly forbidden, unless permitted by WSO2 expressly.
 * You may not alter or remove any copyright or other notice from copies of this content."
-->

<svg xmlns="http://www.w3.org/2000/svg" width="333.409" height="299.762" viewBox="0 0 333.409 299.762">
    <g id="react-logo" transform="translate(-0.754 -0.785)">
        <path id="Path_11" data-name="Path 11" d="M.754,150.127c0,25.18,24.587,48.685,63.349,61.934-7.741,38.968-1.386,70.377,19.834,82.615,21.812,12.58,54.308,3.872,85.151-23.09,30.065,25.873,60.45,36.055,81.652,23.781,21.792-12.615,28.419-46.154,20.465-86.339,40.374-13.348,62.958-33.391,62.958-58.9,0-24.6-24.632-45.872-62.872-59.037C279.854,49.244,272.6,18.6,250.5,5.854c-21.306-12.286-52.044-1.578-82.551,24.971C136.209,2.646,105.775-5.957,83.7,6.822,62.412,19.144,56.338,51.125,64.1,90.813,26.649,103.872.754,125.631.754,150.127Z" transform="translate(0 0)" fill="#fff"/>
        <path id="Path_12" data-name="Path 12" d="M258.695,99.9q-4.727-1.622-9.532-3,.8-3.237,1.473-6.5c7.215-35.025,2.5-63.241-13.613-72.529-15.446-8.908-40.708.38-66.222,22.582q-3.771,3.289-7.372,6.766-2.411-2.311-4.906-4.531c-26.739-23.742-53.541-33.746-69.634-24.43-15.431,8.933-20,35.46-13.506,68.653q.969,4.931,2.188,9.807c-3.792,1.077-7.455,2.225-10.959,3.446-31.348,10.929-51.368,28.059-51.368,45.825,0,18.351,21.491,36.757,54.144,47.917q3.972,1.351,8.007,2.5-1.31,5.252-2.326,10.571c-6.193,32.616-1.356,58.514,14.035,67.392,15.9,9.166,42.577-.256,68.557-22.965q3.08-2.693,6.179-5.7,3.9,3.762,8,7.3c25.165,21.655,50.019,30.4,65.4,21.5,15.882-9.194,21.043-37.015,14.341-70.865q-.767-3.878-1.776-7.915,2.811-.829,5.506-1.719c33.945-11.246,56.029-29.428,56.029-48.024,0-17.831-20.665-35.076-52.645-46.085Z" transform="translate(4.498 4.262)" fill="#53c1de"/>
        <path id="Path_13" data-name="Path 13" d="M248.335,179.014c-1.618.536-3.28,1.054-4.973,1.555a296.884,296.884,0,0,0-14.994-37.511,296.755,296.755,0,0,0,14.411-36.964c3.028.878,5.969,1.8,8.8,2.778C278.982,118.3,295.7,132.251,295.7,143c0,11.446-18.051,26.307-47.358,36.018Zm-12.161,24.1c2.963,14.968,3.386,28.5,1.423,39.079-1.764,9.506-5.31,15.843-9.694,18.381-9.331,5.4-29.288-1.62-50.807-20.138q-3.7-3.184-7.446-6.788a297.251,297.251,0,0,0,24.819-31.516,295.278,295.278,0,0,0,40.1-6.181q.9,3.656,1.6,7.163ZM113.192,259.639c-9.117,3.22-16.378,3.311-20.766.781-9.341-5.386-13.222-26.182-7.927-54.074q.945-4.944,2.162-9.831a297.439,297.439,0,0,0,39.9,5.776,307.8,307.8,0,0,0,25.417,31.4q-2.756,2.666-5.641,5.194c-11.488,10.043-23,17.166-33.146,20.75Zm-42.71-80.7C56.044,174.008,44.12,167.6,35.947,160.6,28.6,154.307,24.9,148.063,24.9,143c0-10.781,16.075-24.534,42.885-33.881q5.048-1.752,10.191-3.207A303.362,303.362,0,0,0,92.4,143.3a307.969,307.969,0,0,0-14.611,37.927q-3.682-1.054-7.309-2.288ZM84.8,81.488c-5.565-28.44-1.87-49.893,7.43-55.276,9.907-5.734,31.81,2.443,54.9,22.941,1.476,1.31,2.958,2.682,4.442,4.1a303.121,303.121,0,0,0-25.223,31.214,309.075,309.075,0,0,0-39.512,6.141Q85.7,86.074,84.8,81.486Zm127.722,31.538q-4.342-7.5-9-14.808c9.448,1.192,18.5,2.778,27,4.719a269.823,269.823,0,0,1-9.477,25.5q-4.1-7.788-8.518-15.408ZM160.437,62.294a270.518,270.518,0,0,1,17.425,21.035q-17.488-.826-35-.008C148.618,75.735,154.511,68.687,160.437,62.294Zm-52.419,50.818q-4.357,7.557-8.358,15.312c-3.684-8.736-6.835-17.326-9.409-25.621,8.448-1.891,17.457-3.436,26.844-4.609q-4.713,7.351-9.077,14.918Zm9.347,75.589a269.332,269.332,0,0,1-27.288-4.387c2.614-8.442,5.835-17.216,9.6-26.14q4.017,7.758,8.395,15.321,4.466,7.713,9.3,15.206Zm43.422,35.891c-6-6.47-11.975-13.624-17.815-21.32q8.5.334,17.324.335,9.054,0,17.874-.4A269,269,0,0,1,160.786,224.592Zm60.373-66.873a268.637,268.637,0,0,1,9.943,26.047,268.452,268.452,0,0,1-27.621,4.708q4.695-7.442,9.09-15.067,4.468-7.748,8.587-15.688Zm-19.545,9.369q-6.728,11.688-14.2,22.919c-8.785.628-17.864.951-27.115.951-9.214,0-18.177-.287-26.808-.847q-7.667-11.2-14.471-22.954-6.767-11.685-12.632-23.857,5.846-12.168,12.594-23.871v0q6.742-11.7,14.357-22.856c8.806-.666,17.835-1.014,26.962-1.014,9.168,0,18.208.351,27.012,1.022q7.533,11.134,14.266,22.779,6.767,11.668,12.765,23.758-5.933,12.207-12.723,23.968ZM227.709,25.836c9.915,5.719,13.771,28.778,7.541,59.019q-.613,2.955-1.331,5.886a303.02,303.02,0,0,0-39.59-6.255A297.146,297.146,0,0,0,169.3,53.248q3.326-3.207,6.809-6.245c21.86-19.025,42.291-26.536,51.6-21.167Z" transform="translate(7.494 7.251)" fill="#fff"/>
        <path id="Path_14" data-name="Path 14" d="M134.484,94.665a26.441,26.441,0,1,1-26.44,26.44,26.44,26.44,0,0,1,26.44-26.44" transform="translate(33.305 29.142)" fill="#53c1de"/>
    </g>
</svg>
