<!--
 * Copyright (c) 2023, WSO2 LLC. (http://www.wso2.com). All Rights Reserved.
 *
 * This software is the property of WSO2 Inc. and its suppliers, if any.
 * Dissemination of any information or reproduction of any material contained
 * herein in any form is strictly forbidden, unless permitted by WSO2 expressly.
 * You may not alter or remove any copyright or other notice from copies of this content.
-->

<svg width="137" height="19" viewBox="0 0 137 19" fill="none" xmlns="http://www.w3.org/2000/svg">
    <path d="M1 1H136V18H12.5147L1 1Z" fill="#EEEEEE" stroke="#EFEFEF" />
    <path
        d="M24.91 13.08C24.4167 13.08 23.9367 13.0033 23.47 12.85C23.01 12.6967 22.6334 12.49 22.34 12.23L22.8 11.44C23.0334 11.66 23.3367 11.84 23.71 11.98C24.0834 12.12 24.4834 12.19 24.91 12.19C25.43 12.19 25.8334 12.08 26.12 11.86C26.4134 11.6333 26.56 11.33 26.56 10.95C26.56 10.5833 26.42 10.29 26.14 10.07C25.8667 9.84333 25.43 9.73 24.83 9.73H24.27V9.03L26.35 6.47L26.49 6.87H22.66V6H27.28V6.68L25.21 9.23L24.69 8.92H25.02C25.8667 8.92 26.5 9.11 26.92 9.49C27.3467 9.87 27.56 10.3533 27.56 10.94C27.56 11.3333 27.4634 11.6933 27.27 12.02C27.0767 12.3467 26.7834 12.6067 26.39 12.8C26.0034 12.9867 25.51 13.08 24.91 13.08ZM28.9227 13V7.7H29.8427V9.14L29.7527 8.78C29.8994 8.41333 30.146 8.13333 30.4927 7.94C30.8394 7.74667 31.266 7.65 31.7727 7.65V8.58C31.7327 8.57333 31.6927 8.57 31.6527 8.57C31.6194 8.57 31.586 8.57 31.5527 8.57C31.0394 8.57 30.6327 8.72333 30.3327 9.03C30.0327 9.33667 29.8827 9.78 29.8827 10.36V13H28.9227ZM35.0971 13.06C34.5837 13.06 34.1237 12.9467 33.7171 12.72C33.3171 12.4933 33.0004 12.1767 32.7671 11.77C32.5337 11.3633 32.4171 10.89 32.4171 10.35C32.4171 9.81 32.5337 9.34 32.7671 8.94C33.0004 8.53333 33.3171 8.21667 33.7171 7.99C34.1237 7.76333 34.5837 7.65 35.0971 7.65C35.5437 7.65 35.9471 7.75 36.3071 7.95C36.6671 8.15 36.9537 8.45 37.1671 8.85C37.3871 9.25 37.4971 9.75 37.4971 10.35C37.4971 10.95 37.3904 11.45 37.1771 11.85C36.9704 12.25 36.6871 12.5533 36.3271 12.76C35.9671 12.96 35.5571 13.06 35.0971 13.06ZM35.1771 12.22C35.5104 12.22 35.8104 12.1433 36.0771 11.99C36.3504 11.8367 36.5637 11.62 36.7171 11.34C36.8771 11.0533 36.9571 10.7233 36.9571 10.35C36.9571 9.97 36.8771 9.64333 36.7171 9.37C36.5637 9.09 36.3504 8.87333 36.0771 8.72C35.8104 8.56667 35.5104 8.49 35.1771 8.49C34.8371 8.49 34.5337 8.56667 34.2671 8.72C34.0004 8.87333 33.7871 9.09 33.6271 9.37C33.4671 9.64333 33.3871 9.97 33.3871 10.35C33.3871 10.7233 33.4671 11.0533 33.6271 11.34C33.7871 11.62 34.0004 11.8367 34.2671 11.99C34.5337 12.1433 34.8371 12.22 35.1771 12.22ZM36.9871 13V11.57L37.0471 10.34L36.9471 9.11V5.58H37.9071V13H36.9871ZM42.549 13V6H45.279C45.8924 6 46.4157 6.09667 46.849 6.29C47.2824 6.48333 47.6157 6.76333 47.849 7.13C48.0824 7.49667 48.199 7.93333 48.199 8.44C48.199 8.94667 48.0824 9.38333 47.849 9.75C47.6157 10.11 47.2824 10.39 46.849 10.59C46.4157 10.7833 45.8924 10.88 45.279 10.88H43.099L43.549 10.41V13H42.549ZM43.549 10.51L43.099 10.01H45.249C45.889 10.01 46.3724 9.87333 46.699 9.6C47.0324 9.32667 47.199 8.94 47.199 8.44C47.199 7.94 47.0324 7.55333 46.699 7.28C46.3724 7.00667 45.889 6.87 45.249 6.87H43.099L43.549 6.37V10.51ZM52.7693 13V11.88L52.7193 11.67V9.76C52.7193 9.35333 52.5993 9.04 52.3593 8.82C52.126 8.59333 51.7727 8.48 51.2993 8.48C50.986 8.48 50.6793 8.53333 50.3793 8.64C50.0793 8.74 49.826 8.87667 49.6193 9.05L49.2193 8.33C49.4927 8.11 49.8193 7.94333 50.1993 7.83C50.586 7.71 50.9893 7.65 51.4093 7.65C52.136 7.65 52.696 7.82667 53.0893 8.18C53.4827 8.53333 53.6793 9.07333 53.6793 9.8V13H52.7693ZM51.0293 13.06C50.636 13.06 50.2893 12.9933 49.9893 12.86C49.696 12.7267 49.4693 12.5433 49.3093 12.31C49.1493 12.07 49.0693 11.8 49.0693 11.5C49.0693 11.2133 49.136 10.9533 49.2693 10.72C49.4093 10.4867 49.6327 10.3 49.9393 10.16C50.2527 10.02 50.6727 9.95 51.1993 9.95H52.8793V10.64H51.2393C50.7593 10.64 50.436 10.72 50.2693 10.88C50.1027 11.04 50.0193 11.2333 50.0193 11.46C50.0193 11.72 50.1227 11.93 50.3293 12.09C50.536 12.2433 50.8227 12.32 51.1893 12.32C51.5493 12.32 51.8627 12.24 52.1293 12.08C52.4027 11.92 52.5993 11.6867 52.7193 11.38L52.9093 12.04C52.7827 12.3533 52.5593 12.6033 52.2393 12.79C51.9193 12.97 51.516 13.06 51.0293 13.06ZM55.4559 13V7.7H56.3759V9.14L56.2859 8.78C56.4326 8.41333 56.6792 8.13333 57.0259 7.94C57.3726 7.74667 57.7992 7.65 58.3059 7.65V8.58C58.2659 8.57333 58.2259 8.57 58.1859 8.57C58.1526 8.57 58.1192 8.57 58.0859 8.57C57.5726 8.57 57.1659 8.72333 56.8659 9.03C56.5659 9.33667 56.4159 9.78 56.4159 10.36V13H55.4559ZM61.5239 13.06C60.9906 13.06 60.5773 12.9167 60.2839 12.63C59.9906 12.3433 59.8439 11.9333 59.8439 11.4V6.54H60.8039V11.36C60.8039 11.6467 60.8739 11.8667 61.0139 12.02C61.1606 12.1733 61.3673 12.25 61.6339 12.25C61.9339 12.25 62.1839 12.1667 62.3839 12L62.6839 12.69C62.5373 12.8167 62.3606 12.91 62.1539 12.97C61.9539 13.03 61.7439 13.06 61.5239 13.06ZM58.9439 8.49V7.7H62.3239V8.49H58.9439ZM63.9769 15C63.7236 15 63.4769 14.9567 63.2369 14.87C62.9969 14.79 62.7902 14.67 62.6169 14.51L63.0269 13.79C63.1602 13.9167 63.3069 14.0133 63.4669 14.08C63.6269 14.1467 63.7969 14.18 63.9769 14.18C64.2102 14.18 64.4036 14.12 64.5569 14C64.7102 13.88 64.8536 13.6667 64.9869 13.36L65.3169 12.63L65.4169 12.51L67.4969 7.7H68.4369L65.8669 13.53C65.7136 13.9033 65.5402 14.1967 65.3469 14.41C65.1602 14.6233 64.9536 14.7733 64.7269 14.86C64.5002 14.9533 64.2502 15 63.9769 15ZM65.2369 13.17L62.8169 7.7H63.8169L65.8769 12.42L65.2369 13.17ZM72.1584 13V6H73.1584V13H72.1584ZM77.9441 7.65C78.3774 7.65 78.7574 7.73333 79.0841 7.9C79.4174 8.06667 79.6774 8.32 79.8641 8.66C80.0508 9 80.1441 9.43 80.1441 9.95V13H79.1841V10.06C79.1841 9.54667 79.0574 9.16 78.8041 8.9C78.5574 8.64 78.2074 8.51 77.7541 8.51C77.4141 8.51 77.1174 8.57667 76.8641 8.71C76.6108 8.84333 76.4141 9.04 76.2741 9.3C76.1408 9.56 76.0741 9.88333 76.0741 10.27V13H75.1141V7.7H76.0341V9.13L75.8841 8.75C76.0574 8.40333 76.3241 8.13333 76.6841 7.94C77.0441 7.74667 77.4641 7.65 77.9441 7.65ZM83.7407 13.06C83.2074 13.06 82.7941 12.9167 82.5007 12.63C82.2074 12.3433 82.0607 11.9333 82.0607 11.4V6.54H83.0207V11.36C83.0207 11.6467 83.0907 11.8667 83.2307 12.02C83.3774 12.1733 83.5841 12.25 83.8507 12.25C84.1507 12.25 84.4007 12.1667 84.6007 12L84.9007 12.69C84.7541 12.8167 84.5774 12.91 84.3707 12.97C84.1707 13.03 83.9607 13.06 83.7407 13.06ZM81.1607 8.49V7.7H84.5407V8.49H81.1607ZM88.2456 13.06C87.6789 13.06 87.1789 12.9433 86.7456 12.71C86.3189 12.4767 85.9856 12.1567 85.7456 11.75C85.5123 11.3433 85.3956 10.8767 85.3956 10.35C85.3956 9.82333 85.5089 9.35667 85.7356 8.95C85.9689 8.54333 86.2856 8.22667 86.6856 8C87.0923 7.76667 87.5489 7.65 88.0556 7.65C88.5689 7.65 89.0223 7.76333 89.4156 7.99C89.8089 8.21667 90.1156 8.53667 90.3356 8.95C90.5623 9.35667 90.6756 9.83333 90.6756 10.38C90.6756 10.42 90.6723 10.4667 90.6656 10.52C90.6656 10.5733 90.6623 10.6233 90.6556 10.67H86.1456V9.98H90.1556L89.7656 10.22C89.7723 9.88 89.7023 9.57667 89.5556 9.31C89.4089 9.04333 89.2056 8.83667 88.9456 8.69C88.6923 8.53667 88.3956 8.46 88.0556 8.46C87.7223 8.46 87.4256 8.53667 87.1656 8.69C86.9056 8.83667 86.7023 9.04667 86.5556 9.32C86.4089 9.58667 86.3356 9.89333 86.3356 10.24V10.4C86.3356 10.7533 86.4156 11.07 86.5756 11.35C86.7423 11.6233 86.9723 11.8367 87.2656 11.99C87.5589 12.1433 87.8956 12.22 88.2756 12.22C88.5889 12.22 88.8723 12.1667 89.1256 12.06C89.3856 11.9533 89.6123 11.7933 89.8056 11.58L90.3356 12.2C90.0956 12.48 89.7956 12.6933 89.4356 12.84C89.0823 12.9867 88.6856 13.06 88.2456 13.06ZM94.3286 15C93.842 15 93.3686 14.93 92.9086 14.79C92.4553 14.6567 92.0853 14.4633 91.7986 14.21L92.2586 13.47C92.5053 13.6833 92.8086 13.85 93.1686 13.97C93.5286 14.0967 93.9053 14.16 94.2986 14.16C94.9253 14.16 95.3853 14.0133 95.6786 13.72C95.972 13.4267 96.1186 12.98 96.1186 12.38V11.26L96.2186 10.21L96.1686 9.15V7.7H97.0786V12.28C97.0786 13.2133 96.8453 13.9 96.3786 14.34C95.912 14.78 95.2286 15 94.3286 15ZM94.2086 12.78C93.6953 12.78 93.2353 12.6733 92.8286 12.46C92.4286 12.24 92.1086 11.9367 91.8686 11.55C91.6353 11.1633 91.5186 10.7167 91.5186 10.21C91.5186 9.69667 91.6353 9.25 91.8686 8.87C92.1086 8.48333 92.4286 8.18333 92.8286 7.97C93.2353 7.75667 93.6953 7.65 94.2086 7.65C94.662 7.65 95.0753 7.74333 95.4486 7.93C95.822 8.11 96.1186 8.39 96.3386 8.77C96.5653 9.15 96.6786 9.63 96.6786 10.21C96.6786 10.7833 96.5653 11.26 96.3386 11.64C96.1186 12.02 95.822 12.3067 95.4486 12.5C95.0753 12.6867 94.662 12.78 94.2086 12.78ZM94.3186 11.94C94.672 11.94 94.9853 11.8667 95.2586 11.72C95.532 11.5733 95.7453 11.37 95.8986 11.11C96.0586 10.85 96.1386 10.55 96.1386 10.21C96.1386 9.87 96.0586 9.57 95.8986 9.31C95.7453 9.05 95.532 8.85 95.2586 8.71C94.9853 8.56333 94.672 8.49 94.3186 8.49C93.9653 8.49 93.6486 8.56333 93.3686 8.71C93.0953 8.85 92.8786 9.05 92.7186 9.31C92.5653 9.57 92.4886 9.87 92.4886 10.21C92.4886 10.55 92.5653 10.85 92.7186 11.11C92.8786 11.37 93.0953 11.5733 93.3686 11.72C93.6486 11.8667 93.9653 11.94 94.3186 11.94ZM98.9129 13V7.7H99.8329V9.14L99.7429 8.78C99.8896 8.41333 100.136 8.13333 100.483 7.94C100.83 7.74667 101.256 7.65 101.763 7.65V8.58C101.723 8.57333 101.683 8.57 101.643 8.57C101.61 8.57 101.576 8.57 101.543 8.57C101.03 8.57 100.623 8.72333 100.323 9.03C100.023 9.33667 99.8729 9.78 99.8729 10.36V13H98.9129ZM105.846 13V11.88L105.796 11.67V9.76C105.796 9.35333 105.676 9.04 105.436 8.82C105.202 8.59333 104.849 8.48 104.376 8.48C104.062 8.48 103.756 8.53333 103.456 8.64C103.156 8.74 102.902 8.87667 102.696 9.05L102.296 8.33C102.569 8.11 102.896 7.94333 103.276 7.83C103.662 7.71 104.066 7.65 104.486 7.65C105.212 7.65 105.772 7.82667 106.166 8.18C106.559 8.53333 106.756 9.07333 106.756 9.8V13H105.846ZM104.106 13.06C103.712 13.06 103.366 12.9933 103.066 12.86C102.772 12.7267 102.546 12.5433 102.386 12.31C102.226 12.07 102.146 11.8 102.146 11.5C102.146 11.2133 102.212 10.9533 102.346 10.72C102.486 10.4867 102.709 10.3 103.016 10.16C103.329 10.02 103.749 9.95 104.276 9.95H105.956V10.64H104.316C103.836 10.64 103.512 10.72 103.346 10.88C103.179 11.04 103.096 11.2333 103.096 11.46C103.096 11.72 103.199 11.93 103.406 12.09C103.612 12.2433 103.899 12.32 104.266 12.32C104.626 12.32 104.939 12.24 105.206 12.08C105.479 11.92 105.676 11.6867 105.796 11.38L105.986 12.04C105.859 12.3533 105.636 12.6033 105.316 12.79C104.996 12.97 104.592 13.06 104.106 13.06ZM110.352 13.06C109.819 13.06 109.405 12.9167 109.112 12.63C108.819 12.3433 108.672 11.9333 108.672 11.4V6.54H109.632V11.36C109.632 11.6467 109.702 11.8667 109.842 12.02C109.989 12.1733 110.195 12.25 110.462 12.25C110.762 12.25 111.012 12.1667 111.212 12L111.512 12.69C111.365 12.8167 111.189 12.91 110.982 12.97C110.782 13.03 110.572 13.06 110.352 13.06ZM107.772 8.49V7.7H111.152V8.49H107.772ZM112.673 13V7.7H113.633V13H112.673ZM113.153 6.68C112.966 6.68 112.809 6.62 112.683 6.5C112.563 6.38 112.503 6.23333 112.503 6.06C112.503 5.88 112.563 5.73 112.683 5.61C112.809 5.49 112.966 5.43 113.153 5.43C113.339 5.43 113.493 5.49 113.613 5.61C113.739 5.72333 113.803 5.86667 113.803 6.04C113.803 6.22 113.743 6.37333 113.623 6.5C113.503 6.62 113.346 6.68 113.153 6.68ZM117.736 13.06C117.202 13.06 116.729 12.9433 116.316 12.71C115.902 12.4767 115.576 12.1567 115.336 11.75C115.096 11.3367 114.976 10.87 114.976 10.35C114.976 9.82333 115.096 9.35667 115.336 8.95C115.576 8.54333 115.902 8.22667 116.316 8C116.729 7.76667 117.202 7.65 117.736 7.65C118.262 7.65 118.732 7.76667 119.146 8C119.566 8.22667 119.892 8.54333 120.126 8.95C120.366 9.35 120.486 9.81667 120.486 10.35C120.486 10.8767 120.366 11.3433 120.126 11.75C119.892 12.1567 119.566 12.4767 119.146 12.71C118.732 12.9433 118.262 13.06 117.736 13.06ZM117.736 12.22C118.076 12.22 118.379 12.1433 118.646 11.99C118.919 11.8367 119.132 11.62 119.286 11.34C119.439 11.0533 119.516 10.7233 119.516 10.35C119.516 9.97 119.439 9.64333 119.286 9.37C119.132 9.09 118.919 8.87333 118.646 8.72C118.379 8.56667 118.076 8.49 117.736 8.49C117.396 8.49 117.092 8.56667 116.826 8.72C116.559 8.87333 116.346 9.09 116.186 9.37C116.026 9.64333 115.946 9.97 115.946 10.35C115.946 10.7233 116.026 11.0533 116.186 11.34C116.346 11.62 116.559 11.8367 116.826 11.99C117.092 12.1433 117.396 12.22 117.736 12.22ZM124.643 7.65C125.077 7.65 125.457 7.73333 125.783 7.9C126.117 8.06667 126.377 8.32 126.563 8.66C126.75 9 126.843 9.43 126.843 9.95V13H125.883V10.06C125.883 9.54667 125.757 9.16 125.503 8.9C125.257 8.64 124.907 8.51 124.453 8.51C124.113 8.51 123.817 8.57667 123.563 8.71C123.31 8.84333 123.113 9.04 122.973 9.3C122.84 9.56 122.773 9.88333 122.773 10.27V13H121.813V7.7H122.733V9.13L122.583 8.75C122.757 8.40333 123.023 8.13333 123.383 7.94C123.743 7.74667 124.163 7.65 124.643 7.65Z"
        fill="#929292" />
</svg>
